<svg id="visual" viewBox="0 0 900 600" width="900" height="600" xmlns="http://www.w3.org/2000/svg" xmlns:xlink="http://www.w3.org/1999/xlink" version="1.1"><rect x="0" y="0" width="900" height="600" fill="#F4F1EC"></rect><path d="M0 496L25 489.8C50 483.7 100 471.3 150 465.7C200 460 250 461 300 466C350 471 400 480 450 482.5C500 485 550 481 600 479.7C650 478.3 700 479.7 750 477.7C800 475.7 850 470.3 875 467.7L900 465L900 601L875 601C850 601 800 601 750 601C700 601 650 601 600 601C550 601 500 601 450 601C400 601 350 601 300 601C250 601 200 601 150 601C100 601 50 601 25 601L0 601Z" fill="#A7C4BC" stroke-linecap="round" stroke-linejoin="miter"></path></svg>